<svg width="113" height="30" viewBox="0 0 113 30" fill="none" xmlns="http://www.w3.org/2000/svg">
<path d="M9.082 3.198C7.38467 3.882 6.06733 4.93333 5.13 6.352C4.218 7.74533 3.762 9.45533 3.762 11.482C3.762 12.4193 3.85067 13.078 4.028 13.458C4.20533 13.8127 4.294 14.0153 4.294 14.066C2.926 14.066 1.9 13.7873 1.216 13.23C0.557333 12.6473 0.228 11.6973 0.228 10.38C0.228 8.75867 0.886667 7.188 2.204 5.668C3.54667 4.12267 5.25667 2.88133 7.334 1.944C9.41133 0.981332 11.4887 0.499998 13.566 0.499998C13.9207 0.499998 14.4273 0.525331 15.086 0.575999L9.044 29H3.572L9.082 3.198ZM27.968 29.228C26.4227 29.228 25.2827 28.8227 24.548 28.012C23.8387 27.176 23.484 26.15 23.484 24.934C23.484 24.402 23.5473 23.8067 23.674 23.148C23.8007 22.464 23.9273 21.8053 24.054 21.172C24.206 20.5387 24.3073 20.1333 24.358 19.956C24.5607 19.0693 24.7507 18.1953 24.928 17.334C25.1053 16.4727 25.194 15.776 25.194 15.244C25.194 13.952 24.738 13.306 23.826 13.306C23.1673 13.306 22.5847 13.6353 22.078 14.294C21.5713 14.9273 21.166 15.7633 20.862 16.802L18.278 29H12.806L16.834 10H22.306L21.888 11.976C23.1547 10.5573 24.6367 9.848 26.334 9.848C27.626 9.848 28.652 10.2027 29.412 10.912C30.172 11.6213 30.552 12.698 30.552 14.142C30.552 14.8767 30.4633 15.7 30.286 16.612C30.1087 17.4987 29.8553 18.588 29.526 19.88C29.3233 20.6653 29.1333 21.438 28.956 22.198C28.804 22.9327 28.728 23.5153 28.728 23.946C28.728 24.4527 28.842 24.8453 29.07 25.124C29.298 25.4027 29.6907 25.542 30.248 25.542C31.008 25.542 31.616 25.276 32.072 24.744C32.528 24.1867 32.984 23.338 33.44 22.198H35.036C34.0987 24.9847 33.0093 26.8593 31.768 27.822C30.552 28.7593 29.2853 29.228 27.968 29.228ZM37.1975 29.228C35.9815 29.228 34.9935 28.848 34.2335 28.088C33.4989 27.328 33.1315 26.188 33.1315 24.668C33.1315 24.0347 33.2329 23.2113 33.4355 22.198L35.7155 11.52H34.4615L34.7655 10H36.0195L37.1595 4.756L42.7835 3.996L41.4915 10H43.7715L43.4675 11.52H41.1875L38.7555 22.92C38.6542 23.3 38.6035 23.7053 38.6035 24.136C38.6035 24.6427 38.7175 25.01 38.9455 25.238C39.1989 25.4407 39.6042 25.542 40.1615 25.542C40.8962 25.542 41.5802 25.238 42.2135 24.63C42.8469 23.9967 43.3029 23.186 43.5815 22.198H45.1775C44.2402 24.934 43.0369 26.796 41.5675 27.784C40.0982 28.7467 38.6415 29.228 37.1975 29.228ZM49.0004 29.228C47.1257 29.228 45.6691 28.7467 44.6304 27.784C43.5917 26.796 43.0724 25.2633 43.0724 23.186C43.0724 21.438 43.4144 19.5127 44.0984 17.41C44.7824 15.3073 45.8971 13.496 47.4424 11.976C48.9877 10.4307 50.9511 9.658 53.3324 9.658C56.1191 9.658 57.5124 10.874 57.5124 13.306C57.5124 14.7247 57.1071 16.0293 56.2964 17.22C55.4857 18.4107 54.4091 19.3733 53.0664 20.108C51.7237 20.8173 50.2924 21.2227 48.7724 21.324C48.7217 22.084 48.6964 22.5907 48.6964 22.844C48.6964 24.0853 48.9117 24.934 49.3424 25.39C49.7731 25.8207 50.4697 26.036 51.4324 26.036C52.8004 26.036 53.9657 25.7193 54.9284 25.086C55.9164 24.4527 56.9931 23.49 58.1584 22.198H59.4504C56.6384 26.8847 53.1551 29.228 49.0004 29.228ZM49.0764 19.5C50.0137 19.4493 50.9004 19.12 51.7364 18.512C52.5977 17.904 53.2817 17.1313 53.7884 16.194C54.3204 15.2567 54.5864 14.2687 54.5864 13.23C54.5864 12.1913 54.2697 11.672 53.6364 11.672C52.7244 11.672 51.8251 12.47 50.9384 14.066C50.0771 15.662 49.4564 17.4733 49.0764 19.5ZM60.7344 10H66.2064L65.7124 12.356C66.5737 11.596 67.3464 11.0133 68.0304 10.608C68.7397 10.2027 69.4997 10 70.3104 10C71.1211 10 71.7544 10.2787 72.2104 10.836C72.6917 11.3933 72.9324 12.0647 72.9324 12.85C72.9324 13.5847 72.6917 14.2307 72.2104 14.788C71.7291 15.3453 71.0577 15.624 70.1964 15.624C69.6391 15.624 69.2591 15.4973 69.0564 15.244C68.8791 14.9653 68.7397 14.5727 68.6384 14.066C68.5624 13.7367 68.4864 13.496 68.4104 13.344C68.3344 13.192 68.1951 13.116 67.9924 13.116C67.4604 13.116 67.0044 13.23 66.6244 13.458C66.2697 13.6607 65.8011 14.028 65.2184 14.56L62.1784 29H56.7064L60.7344 10ZM77.8715 29.228C75.9968 29.228 74.5402 28.7467 73.5015 27.784C72.4628 26.796 71.9435 25.2633 71.9435 23.186C71.9435 21.438 72.2855 19.5127 72.9695 17.41C73.6535 15.3073 74.7682 13.496 76.3135 11.976C77.8588 10.4307 79.8222 9.658 82.2035 9.658C84.9902 9.658 86.3835 10.874 86.3835 13.306C86.3835 14.7247 85.9782 16.0293 85.1675 17.22C84.3568 18.4107 83.2802 19.3733 81.9375 20.108C80.5948 20.8173 79.1635 21.2227 77.6435 21.324C77.5928 22.084 77.5675 22.5907 77.5675 22.844C77.5675 24.0853 77.7828 24.934 78.2135 25.39C78.6442 25.8207 79.3408 26.036 80.3035 26.036C81.6715 26.036 82.8368 25.7193 83.7995 25.086C84.7875 24.4527 85.8642 23.49 87.0295 22.198H88.3215C85.5095 26.8847 82.0262 29.228 77.8715 29.228ZM77.9475 19.5C78.8848 19.4493 79.7715 19.12 80.6075 18.512C81.4688 17.904 82.1528 17.1313 82.6595 16.194C83.1915 15.2567 83.4575 14.2687 83.4575 13.23C83.4575 12.1913 83.1408 11.672 82.5075 11.672C81.5955 11.672 80.6962 12.47 79.8095 14.066C78.9482 15.662 78.3275 17.4733 77.9475 19.5ZM92.4555 29.228C90.5808 29.228 89.1242 28.7467 88.0855 27.784C87.0468 26.796 86.5275 25.2633 86.5275 23.186C86.5275 21.438 86.8695 19.5127 87.5535 17.41C88.2628 15.3073 89.3775 13.496 90.8975 11.976C92.4428 10.4307 94.3935 9.658 96.7495 9.658C98.2695 9.658 99.3462 9.98733 99.9795 10.646C100.638 11.3047 100.967 12.1407 100.967 13.154C100.967 14.0407 100.777 14.7247 100.397 15.206C100.017 15.6873 99.5362 15.928 98.9535 15.928C98.5228 15.928 98.0795 15.776 97.6235 15.472C97.9275 14.636 98.0795 13.8887 98.0795 13.23C98.0795 12.7487 97.9908 12.3687 97.8135 12.09C97.6362 11.8113 97.3702 11.672 97.0155 11.672C96.2555 11.672 95.4955 12.2927 94.7355 13.534C93.9755 14.7753 93.3548 16.2827 92.8735 18.056C92.3922 19.8293 92.1515 21.4253 92.1515 22.844C92.1515 24.0853 92.3668 24.934 92.7975 25.39C93.2282 25.8207 93.9248 26.036 94.8875 26.036C96.2555 26.036 97.4208 25.7193 98.3835 25.086C99.3715 24.4527 100.448 23.49 101.613 22.198H102.905C100.093 26.8847 96.6102 29.228 92.4555 29.228ZM105.177 29.228C103.885 29.228 102.923 28.8353 102.289 28.05C101.681 27.2647 101.377 26.226 101.377 24.934C101.377 24.2753 101.453 23.604 101.605 22.92L104.037 11.52H102.783L103.087 10H104.341L105.481 4.756L111.105 3.996C110.877 4.95867 110.751 5.52867 110.725 5.706C110.548 6.41533 110.244 7.84667 109.813 10H112.093L111.789 11.52H109.509L107.077 22.92C106.951 23.4773 106.887 23.9207 106.887 24.25C106.887 25.162 107.331 25.618 108.217 25.618C108.673 25.618 109.003 25.58 109.205 25.504C108.699 26.9733 108.103 27.9613 107.419 28.468C106.735 28.9747 105.988 29.228 105.177 29.228Z" fill="url(#paint0_linear_10_244)"/>
<defs>
<linearGradient id="paint0_linear_10_244" x1="0" y1="15" x2="113" y2="15" gradientUnits="userSpaceOnUse">
<stop stop-color="#485563"/>
<stop offset="1" stop-color="#29323C"/>
</linearGradient>
</defs>
</svg>
