<svg width="49" height="49" viewBox="0 0 49 49" fill="none" xmlns="http://www.w3.org/2000/svg">
<mask id="mask0_71_13" style="mask-type:alpha" maskUnits="userSpaceOnUse" x="0" y="0" width="49" height="49">
<rect x="0.867676" y="0.809814" width="48" height="48" fill="#D9D9D9"/>
</mask>
<g mask="url(#mask0_71_13)">
<path d="M18.8677 32.8098H22.8677V16.8098H18.8677V32.8098ZM26.8677 32.8098H30.8677V16.8098H26.8677V32.8098ZM24.8677 44.8098C22.101 44.8098 19.501 44.2848 17.0677 43.2348C14.6343 42.1848 12.5177 40.7598 10.7177 38.9598C8.91768 37.1598 7.49268 35.0431 6.44268 32.6098C5.39268 30.1765 4.86768 27.5765 4.86768 24.8098C4.86768 22.0431 5.39268 19.4431 6.44268 17.0098C7.49268 14.5765 8.91768 12.4598 10.7177 10.6598C12.5177 8.85981 14.6343 7.43481 17.0677 6.38481C19.501 5.33481 22.101 4.80981 24.8677 4.80981C27.6343 4.80981 30.2343 5.33481 32.6677 6.38481C35.101 7.43481 37.2177 8.85981 39.0177 10.6598C40.8177 12.4598 42.2427 14.5765 43.2927 17.0098C44.3427 19.4431 44.8677 22.0431 44.8677 24.8098C44.8677 27.5765 44.3427 30.1765 43.2927 32.6098C42.2427 35.0431 40.8177 37.1598 39.0177 38.9598C37.2177 40.7598 35.101 42.1848 32.6677 43.2348C30.2343 44.2848 27.6343 44.8098 24.8677 44.8098ZM24.8677 40.8098C29.3343 40.8098 33.1177 39.2598 36.2177 36.1598C39.3177 33.0598 40.8677 29.2765 40.8677 24.8098C40.8677 20.3431 39.3177 16.5598 36.2177 13.4598C33.1177 10.3598 29.3343 8.80981 24.8677 8.80981C20.401 8.80981 16.6177 10.3598 13.5177 13.4598C10.4177 16.5598 8.86768 20.3431 8.86768 24.8098C8.86768 29.2765 10.4177 33.0598 13.5177 36.1598C16.6177 39.2598 20.401 40.8098 24.8677 40.8098Z" fill="#F8FAFD"/>
</g>
</svg>
